<?xml version="1.0" standalone="no"?>
<!DOCTYPE svg PUBLIC "-//W3C//DTD SVG 20010904//EN"
 "http://www.w3.org/TR/2001/REC-SVG-20010904/DTD/svg10.dtd">
<svg version="1.0" xmlns="http://www.w3.org/2000/svg"
 width="130.000000pt" height="130.000000pt" viewBox="0 0 130.000000 130.000000"
 preserveAspectRatio="xMidYMid meet">
<metadata>
Created by potrace 1.14, written by Peter Selinger 2001-2017
</metadata>
<g transform="translate(0.000000,130.000000) scale(0.100000,-0.100000)"
fill="#000000" stroke="none">
<path d="M607 1284 c-1 -2 -23 -5 -49 -8 -25 -3 -58 -10 -72 -16 -14 -5 -26
-6 -26 -3 0 4 -5 2 -12 -5 -7 -7 -19 -12 -28 -12 -9 0 -21 -5 -28 -12 -6 -6
-18 -13 -26 -14 -26 -4 -130 -81 -176 -130 -88 -95 -156 -236 -164 -340 -2
-23 -5 -46 -8 -50 -3 -8 -2 -89 2 -89 1 0 3 -20 5 -45 2 -25 8 -57 14 -71 5
-15 7 -30 4 -33 -4 -3 -1 -6 6 -6 7 0 10 -4 6 -9 -3 -5 6 -30 19 -55 13 -25
22 -46 20 -46 -3 0 4 -10 16 -22 11 -12 20 -27 20 -32 0 -10 112 -122 152
-153 16 -12 91 -51 138 -72 14 -6 36 -12 50 -14 14 -2 33 -7 42 -11 9 -4 41
-9 70 -10 29 -1 59 -5 66 -10 6 -4 12 -4 12 1 0 4 20 9 45 10 54 1 136 20 185
41 19 9 37 16 40 17 21 6 60 30 60 37 0 5 5 6 10 3 6 -3 10 -1 10 4 0 6 5 11
11 11 26 0 176 170 162 183 -3 4 -1 7 5 7 6 0 16 16 23 35 7 19 17 35 23 35 5
0 7 3 3 6 -3 4 0 22 8 42 19 44 26 77 28 124 1 21 4 38 7 38 3 0 5 14 5 30 1
17 -3 30 -8 30 -5 0 -4 6 2 13 6 8 8 16 6 19 -3 3 -7 21 -9 39 -6 47 -14 83
-28 116 -6 16 -12 34 -14 41 -11 55 -176 263 -198 251 -4 -2 -12 4 -17 14 -6
9 -14 15 -20 12 -5 -4 -9 -2 -9 4 0 12 -114 68 -153 75 -15 2 -31 7 -36 10
-13 8 -188 26 -194 20z"/>
</g>
</svg>
