<svg width="28" height="28" viewBox="0 0 28 28" fill="none" xmlns="http://www.w3.org/2000/svg">
<rect width="28" height="28" rx="10" fill="#2153FF"/>
<path d="M11.5537 14.7687L11.5537 14.7687L11.5593 14.7756C11.9021 15.1963 12.3883 15.5326 12.9583 15.4778C13.5181 15.4309 13.9458 15.0365 14.217 14.5499L14.2176 14.5488L15.4776 12.2755L15.4778 12.2752C15.9481 11.4249 16.4943 11.1186 16.9825 11.1392C17.4601 11.1659 17.9728 11.527 18.361 12.4242C18.3611 12.4244 18.3612 12.4247 18.3613 12.4249L20.4473 17.2966L20.4475 17.2972C20.5369 17.5051 20.5953 17.7213 20.6233 17.9397C20.5933 17.7291 20.5345 17.5196 20.4462 17.3155C20.446 17.3151 20.4458 17.3147 20.4457 17.3143L18.3609 12.4453C18.3607 12.4449 18.3605 12.4445 18.3603 12.4441C18.2174 12.1058 18.0358 11.807 17.8191 11.5825C17.6075 11.3633 17.3223 11.1759 16.9792 11.1604C16.6412 11.1411 16.3396 11.3081 16.1148 11.4967C15.8775 11.6957 15.6601 11.9717 15.4782 12.2939L15.4762 12.2974L14.2169 14.5696C14.2168 14.5698 14.2167 14.57 14.2166 14.5702C13.8935 15.1491 13.4193 15.4587 12.9574 15.5016C12.4949 15.538 11.975 15.3168 11.5589 14.796L11.4154 14.6134C11.0806 14.1762 10.6302 13.8665 10.1069 13.8665C10.1058 13.8665 10.1043 13.8664 10.1025 13.8664C10.0819 13.8663 10.0211 13.8659 9.94959 13.8787C9.38707 13.9474 8.97328 14.3833 8.72107 14.8801L8.72106 14.8801L8.71943 14.8834L7.57335 17.1822C7.53643 17.2553 7.50353 17.3297 7.47461 17.4051C7.50384 17.3277 7.53716 17.2512 7.57458 17.1758C7.57464 17.1757 7.57471 17.1755 7.57477 17.1754L8.72078 14.8767C8.72083 14.8766 8.72087 14.8766 8.72091 14.8765C9.03778 14.2429 9.50941 13.9142 9.97437 13.8635C10.4364 13.8132 10.9673 14.0363 11.4089 14.5843L11.5537 14.7687Z" fill="#292D32" stroke="white"/>
<path d="M10.6465 7.3335C9.54586 7.3335 8.65173 8.2244 8.64651 9.32381C8.65174 8.22544 9.54691 7.3335 10.6465 7.3335ZM10.6465 7.3335C11.7503 7.3335 12.6465 8.22964 12.6465 9.3335M10.6465 7.3335C11.7493 7.3335 12.6465 8.23069 12.6465 9.3335M12.6465 9.3335C12.6465 10.4374 11.7503 11.3335 10.6465 11.3335C11.7493 11.3335 12.6465 10.4363 12.6465 9.3335Z" fill="#292D32" stroke="white"/>
</svg>
